<mxfile host="app.diagrams.net" modified="2021-02-07T00:31:33.906Z" agent="5.0 (Windows NT 10.0; Win64; x64) AppleWebKit/537.36 (KHTML, like Gecko) Chrome/88.0.4324.146 Safari/537.36" etag="BgXbHPSsjSX91RooX72T" version="14.2.9" type="github">
  <diagram id="feRT_Bv8ankwjaCeMuWD" name="Page-1">
    <mxGraphModel dx="868" dy="450" grid="0" gridSize="10" guides="1" tooltips="1" connect="1" arrows="1" fold="1" page="1" pageScale="1" pageWidth="850" pageHeight="1100" math="0" shadow="0">
      <root>
        <mxCell id="0" />
        <mxCell id="1" parent="0" />
        <mxCell id="7X9WFguHcZWcBJbjp-pj-3" value="" style="ellipse;whiteSpace=wrap;html=1;" parent="1" vertex="1">
          <mxGeometry x="36" y="36" width="66" height="42" as="geometry" />
        </mxCell>
        <mxCell id="7X9WFguHcZWcBJbjp-pj-4" value="id" style="text;html=1;strokeColor=none;fillColor=none;align=center;verticalAlign=middle;whiteSpace=wrap;rounded=0;fontStyle=0" parent="1" vertex="1">
          <mxGeometry x="48" y="47" width="40" height="20" as="geometry" />
        </mxCell>
        <mxCell id="7X9WFguHcZWcBJbjp-pj-5" value="" style="ellipse;whiteSpace=wrap;html=1;" parent="1" vertex="1">
          <mxGeometry x="113" y="36" width="66" height="42" as="geometry" />
        </mxCell>
        <mxCell id="7X9WFguHcZWcBJbjp-pj-6" value="name" style="text;html=1;strokeColor=none;fillColor=none;align=center;verticalAlign=middle;whiteSpace=wrap;rounded=0;" parent="1" vertex="1">
          <mxGeometry x="125" y="47" width="40" height="20" as="geometry" />
        </mxCell>
        <mxCell id="7X9WFguHcZWcBJbjp-pj-7" value="" style="ellipse;whiteSpace=wrap;html=1;" parent="1" vertex="1">
          <mxGeometry x="201" y="36" width="66" height="42" as="geometry" />
        </mxCell>
        <mxCell id="7X9WFguHcZWcBJbjp-pj-8" value="paren_id" style="text;html=1;strokeColor=none;fillColor=none;align=center;verticalAlign=middle;whiteSpace=wrap;rounded=0;" parent="1" vertex="1">
          <mxGeometry x="213" y="47" width="40" height="20" as="geometry" />
        </mxCell>
        <mxCell id="7X9WFguHcZWcBJbjp-pj-9" value="" style="ellipse;whiteSpace=wrap;html=1;" parent="1" vertex="1">
          <mxGeometry x="265" y="89" width="66" height="42" as="geometry" />
        </mxCell>
        <mxCell id="7X9WFguHcZWcBJbjp-pj-10" value="type" style="text;html=1;strokeColor=none;fillColor=none;align=center;verticalAlign=middle;whiteSpace=wrap;rounded=0;" parent="1" vertex="1">
          <mxGeometry x="277" y="100" width="40" height="20" as="geometry" />
        </mxCell>
        <mxCell id="7X9WFguHcZWcBJbjp-pj-15" value="" style="endArrow=none;html=1;" parent="1" target="7X9WFguHcZWcBJbjp-pj-7" edge="1">
          <mxGeometry width="50" height="50" relative="1" as="geometry">
            <mxPoint x="179" y="122" as="sourcePoint" />
            <mxPoint x="224" y="77" as="targetPoint" />
          </mxGeometry>
        </mxCell>
        <mxCell id="7X9WFguHcZWcBJbjp-pj-16" value="" style="endArrow=none;html=1;entryX=0;entryY=1;entryDx=0;entryDy=0;" parent="1" target="7X9WFguHcZWcBJbjp-pj-9" edge="1">
          <mxGeometry width="50" height="50" relative="1" as="geometry">
            <mxPoint x="227.65" y="168.51" as="sourcePoint" />
            <mxPoint x="267" y="122" as="targetPoint" />
          </mxGeometry>
        </mxCell>
        <mxCell id="7X9WFguHcZWcBJbjp-pj-17" value="" style="endArrow=none;html=1;exitX=0.5;exitY=0;exitDx=0;exitDy=0;entryX=0.5;entryY=1;entryDx=0;entryDy=0;" parent="1" target="7X9WFguHcZWcBJbjp-pj-5" edge="1">
          <mxGeometry width="50" height="50" relative="1" as="geometry">
            <mxPoint x="167" y="122" as="sourcePoint" />
            <mxPoint x="135" y="86" as="targetPoint" />
          </mxGeometry>
        </mxCell>
        <mxCell id="7X9WFguHcZWcBJbjp-pj-18" value="" style="endArrow=none;html=1;exitX=0.25;exitY=0;exitDx=0;exitDy=0;" parent="1" edge="1">
          <mxGeometry width="50" height="50" relative="1" as="geometry">
            <mxPoint x="137" y="122" as="sourcePoint" />
            <mxPoint x="81.35470583984443" y="75.48989309836566" as="targetPoint" />
          </mxGeometry>
        </mxCell>
        <mxCell id="7X9WFguHcZWcBJbjp-pj-19" value="" style="rounded=0;whiteSpace=wrap;html=1;" parent="1" vertex="1">
          <mxGeometry x="539" y="139" width="120" height="60" as="geometry" />
        </mxCell>
        <mxCell id="7X9WFguHcZWcBJbjp-pj-20" value="cashCard" style="text;html=1;strokeColor=none;fillColor=none;align=center;verticalAlign=middle;whiteSpace=wrap;rounded=0;" parent="1" vertex="1">
          <mxGeometry x="572" y="154.5" width="54" height="29" as="geometry" />
        </mxCell>
        <mxCell id="7X9WFguHcZWcBJbjp-pj-21" value="" style="ellipse;whiteSpace=wrap;html=1;" parent="1" vertex="1">
          <mxGeometry x="468" y="53" width="66" height="42" as="geometry" />
        </mxCell>
        <mxCell id="7X9WFguHcZWcBJbjp-pj-22" value="id" style="text;html=1;strokeColor=none;fillColor=none;align=center;verticalAlign=middle;whiteSpace=wrap;rounded=0;" parent="1" vertex="1">
          <mxGeometry x="480" y="64" width="40" height="20" as="geometry" />
        </mxCell>
        <mxCell id="7X9WFguHcZWcBJbjp-pj-23" value="" style="ellipse;whiteSpace=wrap;html=1;" parent="1" vertex="1">
          <mxGeometry x="545" y="53" width="66" height="42" as="geometry" />
        </mxCell>
        <mxCell id="7X9WFguHcZWcBJbjp-pj-24" value="password" style="text;html=1;strokeColor=none;fillColor=none;align=center;verticalAlign=middle;whiteSpace=wrap;rounded=0;" parent="1" vertex="1">
          <mxGeometry x="557" y="64" width="40" height="20" as="geometry" />
        </mxCell>
        <mxCell id="7X9WFguHcZWcBJbjp-pj-25" value="" style="ellipse;whiteSpace=wrap;html=1;" parent="1" vertex="1">
          <mxGeometry x="633" y="53" width="66" height="42" as="geometry" />
        </mxCell>
        <mxCell id="7X9WFguHcZWcBJbjp-pj-26" value="amount" style="text;html=1;strokeColor=none;fillColor=none;align=center;verticalAlign=middle;whiteSpace=wrap;rounded=0;" parent="1" vertex="1">
          <mxGeometry x="645" y="64" width="40" height="20" as="geometry" />
        </mxCell>
        <mxCell id="7X9WFguHcZWcBJbjp-pj-27" value="" style="ellipse;whiteSpace=wrap;html=1;" parent="1" vertex="1">
          <mxGeometry x="697" y="106" width="84" height="42" as="geometry" />
        </mxCell>
        <mxCell id="7X9WFguHcZWcBJbjp-pj-28" value="Serial_number" style="text;html=1;strokeColor=none;fillColor=none;align=center;verticalAlign=middle;whiteSpace=wrap;rounded=0;" parent="1" vertex="1">
          <mxGeometry x="719" y="117" width="40" height="20" as="geometry" />
        </mxCell>
        <mxCell id="7X9WFguHcZWcBJbjp-pj-29" value="" style="endArrow=none;html=1;" parent="1" target="7X9WFguHcZWcBJbjp-pj-25" edge="1">
          <mxGeometry width="50" height="50" relative="1" as="geometry">
            <mxPoint x="611" y="139" as="sourcePoint" />
            <mxPoint x="656" y="94" as="targetPoint" />
          </mxGeometry>
        </mxCell>
        <mxCell id="7X9WFguHcZWcBJbjp-pj-30" value="" style="endArrow=none;html=1;entryX=0;entryY=1;entryDx=0;entryDy=0;" parent="1" target="7X9WFguHcZWcBJbjp-pj-27" edge="1">
          <mxGeometry width="50" height="50" relative="1" as="geometry">
            <mxPoint x="659.6500000000001" y="185.51" as="sourcePoint" />
            <mxPoint x="699" y="139" as="targetPoint" />
          </mxGeometry>
        </mxCell>
        <mxCell id="7X9WFguHcZWcBJbjp-pj-31" value="" style="endArrow=none;html=1;exitX=0.5;exitY=0;exitDx=0;exitDy=0;entryX=0.5;entryY=1;entryDx=0;entryDy=0;" parent="1" source="7X9WFguHcZWcBJbjp-pj-19" target="7X9WFguHcZWcBJbjp-pj-23" edge="1">
          <mxGeometry width="50" height="50" relative="1" as="geometry">
            <mxPoint x="553" y="141.51" as="sourcePoint" />
            <mxPoint x="567" y="103" as="targetPoint" />
          </mxGeometry>
        </mxCell>
        <mxCell id="7X9WFguHcZWcBJbjp-pj-32" value="" style="endArrow=none;html=1;exitX=0.25;exitY=0;exitDx=0;exitDy=0;" parent="1" source="7X9WFguHcZWcBJbjp-pj-19" edge="1">
          <mxGeometry width="50" height="50" relative="1" as="geometry">
            <mxPoint x="474" y="139" as="sourcePoint" />
            <mxPoint x="513.3547058398444" y="92.48989309836566" as="targetPoint" />
          </mxGeometry>
        </mxCell>
        <mxCell id="7X9WFguHcZWcBJbjp-pj-33" value="" style="rounded=0;whiteSpace=wrap;html=1;" parent="1" vertex="1">
          <mxGeometry x="134" y="410" width="127" height="60" as="geometry" />
        </mxCell>
        <mxCell id="7X9WFguHcZWcBJbjp-pj-34" value="customer" style="text;html=1;strokeColor=none;fillColor=none;align=center;verticalAlign=middle;whiteSpace=wrap;rounded=0;" parent="1" vertex="1">
          <mxGeometry x="167" y="425.5" width="54" height="29" as="geometry" />
        </mxCell>
        <mxCell id="7X9WFguHcZWcBJbjp-pj-49" value="" style="ellipse;whiteSpace=wrap;html=1;" parent="1" vertex="1">
          <mxGeometry x="315" y="460" width="84" height="42" as="geometry" />
        </mxCell>
        <mxCell id="7X9WFguHcZWcBJbjp-pj-50" value="username" style="text;html=1;strokeColor=none;fillColor=none;align=center;verticalAlign=middle;whiteSpace=wrap;rounded=0;" parent="1" vertex="1">
          <mxGeometry x="336" y="471" width="40" height="20" as="geometry" />
        </mxCell>
        <mxCell id="7X9WFguHcZWcBJbjp-pj-51" value="" style="endArrow=none;html=1;entryX=0;entryY=1;entryDx=0;entryDy=0;exitX=1;exitY=1;exitDx=0;exitDy=0;" parent="1" source="7X9WFguHcZWcBJbjp-pj-33" target="7X9WFguHcZWcBJbjp-pj-49" edge="1">
          <mxGeometry width="50" height="50" relative="1" as="geometry">
            <mxPoint x="261.0000000000001" y="534.01" as="sourcePoint" />
            <mxPoint x="300.35" y="487.5" as="targetPoint" />
          </mxGeometry>
        </mxCell>
        <mxCell id="7X9WFguHcZWcBJbjp-pj-52" value="" style="ellipse;whiteSpace=wrap;html=1;" parent="1" vertex="1">
          <mxGeometry x="240" y="508" width="84" height="42" as="geometry" />
        </mxCell>
        <mxCell id="7X9WFguHcZWcBJbjp-pj-53" value="card_id" style="text;html=1;strokeColor=none;fillColor=none;align=center;verticalAlign=middle;whiteSpace=wrap;rounded=0;" parent="1" vertex="1">
          <mxGeometry x="262" y="519" width="40" height="20" as="geometry" />
        </mxCell>
        <mxCell id="7X9WFguHcZWcBJbjp-pj-54" value="" style="endArrow=none;html=1;entryX=0.5;entryY=0;entryDx=0;entryDy=0;exitX=0.75;exitY=1;exitDx=0;exitDy=0;" parent="1" source="7X9WFguHcZWcBJbjp-pj-33" target="7X9WFguHcZWcBJbjp-pj-52" edge="1">
          <mxGeometry width="50" height="50" relative="1" as="geometry">
            <mxPoint x="129.00000000000009" y="587.51" as="sourcePoint" />
            <mxPoint x="168.35" y="541" as="targetPoint" />
          </mxGeometry>
        </mxCell>
        <mxCell id="7X9WFguHcZWcBJbjp-pj-55" value="" style="ellipse;whiteSpace=wrap;html=1;" parent="1" vertex="1">
          <mxGeometry x="140" y="522" width="84" height="42" as="geometry" />
        </mxCell>
        <mxCell id="7X9WFguHcZWcBJbjp-pj-56" value="telephone" style="text;html=1;strokeColor=none;fillColor=none;align=center;verticalAlign=middle;whiteSpace=wrap;rounded=0;" parent="1" vertex="1">
          <mxGeometry x="162" y="533" width="40" height="20" as="geometry" />
        </mxCell>
        <mxCell id="7X9WFguHcZWcBJbjp-pj-57" value="" style="endArrow=none;html=1;exitX=0.25;exitY=1;exitDx=0;exitDy=0;" parent="1" source="7X9WFguHcZWcBJbjp-pj-33" edge="1">
          <mxGeometry width="50" height="50" relative="1" as="geometry">
            <mxPoint x="43.65000000000009" y="565.01" as="sourcePoint" />
            <mxPoint x="182" y="521" as="targetPoint" />
          </mxGeometry>
        </mxCell>
        <mxCell id="7X9WFguHcZWcBJbjp-pj-58" value="" style="ellipse;whiteSpace=wrap;html=1;" parent="1" vertex="1">
          <mxGeometry x="53" y="508" width="84" height="42" as="geometry" />
        </mxCell>
        <mxCell id="7X9WFguHcZWcBJbjp-pj-59" value="street" style="text;html=1;strokeColor=none;fillColor=none;align=center;verticalAlign=middle;whiteSpace=wrap;rounded=0;" parent="1" vertex="1">
          <mxGeometry x="75" y="519" width="40" height="20" as="geometry" />
        </mxCell>
        <mxCell id="7X9WFguHcZWcBJbjp-pj-60" value="" style="endArrow=none;html=1;exitX=0;exitY=1;exitDx=0;exitDy=0;" parent="1" source="7X9WFguHcZWcBJbjp-pj-33" edge="1">
          <mxGeometry width="50" height="50" relative="1" as="geometry">
            <mxPoint x="77" y="456" as="sourcePoint" />
            <mxPoint x="95" y="507" as="targetPoint" />
          </mxGeometry>
        </mxCell>
        <mxCell id="7X9WFguHcZWcBJbjp-pj-61" value="" style="ellipse;whiteSpace=wrap;html=1;" parent="1" vertex="1">
          <mxGeometry x="13" y="460" width="84" height="42" as="geometry" />
        </mxCell>
        <mxCell id="7X9WFguHcZWcBJbjp-pj-62" value="password" style="text;html=1;strokeColor=none;fillColor=none;align=center;verticalAlign=middle;whiteSpace=wrap;rounded=0;" parent="1" vertex="1">
          <mxGeometry x="35" y="471" width="40" height="20" as="geometry" />
        </mxCell>
        <mxCell id="7X9WFguHcZWcBJbjp-pj-63" value="" style="endArrow=none;html=1;exitX=0.008;exitY=0.633;exitDx=0;exitDy=0;exitPerimeter=0;entryX=1;entryY=0;entryDx=0;entryDy=0;" parent="1" source="7X9WFguHcZWcBJbjp-pj-33" target="7X9WFguHcZWcBJbjp-pj-61" edge="1">
          <mxGeometry width="50" height="50" relative="1" as="geometry">
            <mxPoint x="37" y="408" as="sourcePoint" />
            <mxPoint x="55" y="459" as="targetPoint" />
          </mxGeometry>
        </mxCell>
        <mxCell id="7X9WFguHcZWcBJbjp-pj-64" value="" style="ellipse;whiteSpace=wrap;html=1;" parent="1" vertex="1">
          <mxGeometry x="16" y="383.5" width="84" height="42" as="geometry" />
        </mxCell>
        <mxCell id="7X9WFguHcZWcBJbjp-pj-65" value="name" style="text;html=1;strokeColor=none;fillColor=none;align=center;verticalAlign=middle;whiteSpace=wrap;rounded=0;" parent="1" vertex="1">
          <mxGeometry x="38" y="394.5" width="40" height="20" as="geometry" />
        </mxCell>
        <mxCell id="7X9WFguHcZWcBJbjp-pj-66" value="" style="endArrow=none;html=1;entryX=1;entryY=0.5;entryDx=0;entryDy=0;" parent="1" target="7X9WFguHcZWcBJbjp-pj-64" edge="1">
          <mxGeometry width="50" height="50" relative="1" as="geometry">
            <mxPoint x="132" y="424" as="sourcePoint" />
            <mxPoint x="65" y="402" as="targetPoint" />
          </mxGeometry>
        </mxCell>
        <mxCell id="7X9WFguHcZWcBJbjp-pj-67" value="" style="rounded=0;whiteSpace=wrap;html=1;" parent="1" vertex="1">
          <mxGeometry x="551" y="417.5" width="120" height="60" as="geometry" />
        </mxCell>
        <mxCell id="7X9WFguHcZWcBJbjp-pj-68" value="Employee" style="text;html=1;strokeColor=none;fillColor=none;align=center;verticalAlign=middle;whiteSpace=wrap;rounded=0;" parent="1" vertex="1">
          <mxGeometry x="584" y="433" width="54" height="29" as="geometry" />
        </mxCell>
        <mxCell id="7X9WFguHcZWcBJbjp-pj-69" value="" style="ellipse;whiteSpace=wrap;html=1;" parent="1" vertex="1">
          <mxGeometry x="480" y="331.5" width="66" height="42" as="geometry" />
        </mxCell>
        <mxCell id="7X9WFguHcZWcBJbjp-pj-70" value="id" style="text;html=1;strokeColor=none;fillColor=none;align=center;verticalAlign=middle;whiteSpace=wrap;rounded=0;" parent="1" vertex="1">
          <mxGeometry x="492" y="342.5" width="40" height="20" as="geometry" />
        </mxCell>
        <mxCell id="7X9WFguHcZWcBJbjp-pj-71" value="" style="ellipse;whiteSpace=wrap;html=1;" parent="1" vertex="1">
          <mxGeometry x="557" y="331.5" width="66" height="42" as="geometry" />
        </mxCell>
        <mxCell id="7X9WFguHcZWcBJbjp-pj-72" value="password" style="text;html=1;strokeColor=none;fillColor=none;align=center;verticalAlign=middle;whiteSpace=wrap;rounded=0;" parent="1" vertex="1">
          <mxGeometry x="569" y="342.5" width="40" height="20" as="geometry" />
        </mxCell>
        <mxCell id="7X9WFguHcZWcBJbjp-pj-73" value="" style="ellipse;whiteSpace=wrap;html=1;" parent="1" vertex="1">
          <mxGeometry x="645" y="331.5" width="66" height="42" as="geometry" />
        </mxCell>
        <mxCell id="7X9WFguHcZWcBJbjp-pj-74" value="username" style="text;html=1;strokeColor=none;fillColor=none;align=center;verticalAlign=middle;whiteSpace=wrap;rounded=0;" parent="1" vertex="1">
          <mxGeometry x="657" y="342.5" width="40" height="20" as="geometry" />
        </mxCell>
        <mxCell id="7X9WFguHcZWcBJbjp-pj-75" value="" style="ellipse;whiteSpace=wrap;html=1;" parent="1" vertex="1">
          <mxGeometry x="709" y="384.5" width="84" height="42" as="geometry" />
        </mxCell>
        <mxCell id="7X9WFguHcZWcBJbjp-pj-76" value="telephone" style="text;html=1;strokeColor=none;fillColor=none;align=center;verticalAlign=middle;whiteSpace=wrap;rounded=0;" parent="1" vertex="1">
          <mxGeometry x="731" y="395.5" width="40" height="20" as="geometry" />
        </mxCell>
        <mxCell id="7X9WFguHcZWcBJbjp-pj-77" value="" style="endArrow=none;html=1;" parent="1" target="7X9WFguHcZWcBJbjp-pj-73" edge="1">
          <mxGeometry width="50" height="50" relative="1" as="geometry">
            <mxPoint x="623" y="417.5" as="sourcePoint" />
            <mxPoint x="668" y="372.5" as="targetPoint" />
          </mxGeometry>
        </mxCell>
        <mxCell id="7X9WFguHcZWcBJbjp-pj-78" value="" style="endArrow=none;html=1;entryX=0;entryY=1;entryDx=0;entryDy=0;" parent="1" target="7X9WFguHcZWcBJbjp-pj-75" edge="1">
          <mxGeometry width="50" height="50" relative="1" as="geometry">
            <mxPoint x="671.6500000000001" y="464.01" as="sourcePoint" />
            <mxPoint x="711" y="417.5" as="targetPoint" />
          </mxGeometry>
        </mxCell>
        <mxCell id="7X9WFguHcZWcBJbjp-pj-79" value="" style="endArrow=none;html=1;exitX=0.5;exitY=0;exitDx=0;exitDy=0;entryX=0.5;entryY=1;entryDx=0;entryDy=0;" parent="1" source="7X9WFguHcZWcBJbjp-pj-67" target="7X9WFguHcZWcBJbjp-pj-71" edge="1">
          <mxGeometry width="50" height="50" relative="1" as="geometry">
            <mxPoint x="565" y="420.01" as="sourcePoint" />
            <mxPoint x="579" y="381.5" as="targetPoint" />
          </mxGeometry>
        </mxCell>
        <mxCell id="7X9WFguHcZWcBJbjp-pj-80" value="" style="endArrow=none;html=1;exitX=0.25;exitY=0;exitDx=0;exitDy=0;" parent="1" source="7X9WFguHcZWcBJbjp-pj-67" edge="1">
          <mxGeometry width="50" height="50" relative="1" as="geometry">
            <mxPoint x="486" y="417.5" as="sourcePoint" />
            <mxPoint x="525.3547058398444" y="370.98989309836566" as="targetPoint" />
          </mxGeometry>
        </mxCell>
        <mxCell id="7X9WFguHcZWcBJbjp-pj-81" value="" style="ellipse;whiteSpace=wrap;html=1;" parent="1" vertex="1">
          <mxGeometry x="711.35" y="477.5" width="84" height="42" as="geometry" />
        </mxCell>
        <mxCell id="7X9WFguHcZWcBJbjp-pj-82" value="name" style="text;html=1;strokeColor=none;fillColor=none;align=center;verticalAlign=middle;whiteSpace=wrap;rounded=0;" parent="1" vertex="1">
          <mxGeometry x="733.35" y="488.5" width="40" height="20" as="geometry" />
        </mxCell>
        <mxCell id="7X9WFguHcZWcBJbjp-pj-83" value="" style="endArrow=none;html=1;entryX=0;entryY=1;entryDx=0;entryDy=0;exitX=1;exitY=1;exitDx=0;exitDy=0;" parent="1" source="7X9WFguHcZWcBJbjp-pj-67" target="7X9WFguHcZWcBJbjp-pj-81" edge="1">
          <mxGeometry width="50" height="50" relative="1" as="geometry">
            <mxPoint x="674.0000000000001" y="557.01" as="sourcePoint" />
            <mxPoint x="713.35" y="510.5" as="targetPoint" />
          </mxGeometry>
        </mxCell>
        <mxCell id="7X9WFguHcZWcBJbjp-pj-85" value="" style="rounded=0;whiteSpace=wrap;html=1;" parent="1" vertex="1">
          <mxGeometry x="109" y="714" width="120" height="60" as="geometry" />
        </mxCell>
        <mxCell id="7X9WFguHcZWcBJbjp-pj-86" value="meter" style="text;html=1;strokeColor=none;fillColor=none;align=center;verticalAlign=middle;whiteSpace=wrap;rounded=0;" parent="1" vertex="1">
          <mxGeometry x="142" y="729.5" width="54" height="29" as="geometry" />
        </mxCell>
        <mxCell id="7X9WFguHcZWcBJbjp-pj-87" value="" style="ellipse;whiteSpace=wrap;html=1;" parent="1" vertex="1">
          <mxGeometry x="38" y="628" width="66" height="42" as="geometry" />
        </mxCell>
        <mxCell id="7X9WFguHcZWcBJbjp-pj-88" value="id" style="text;html=1;strokeColor=none;fillColor=none;align=center;verticalAlign=middle;whiteSpace=wrap;rounded=0;" parent="1" vertex="1">
          <mxGeometry x="50" y="639" width="40" height="20" as="geometry" />
        </mxCell>
        <mxCell id="7X9WFguHcZWcBJbjp-pj-89" value="" style="ellipse;whiteSpace=wrap;html=1;" parent="1" vertex="1">
          <mxGeometry x="107" y="628" width="66" height="42" as="geometry" />
        </mxCell>
        <mxCell id="7X9WFguHcZWcBJbjp-pj-90" value="amount" style="text;html=1;strokeColor=none;fillColor=none;align=center;verticalAlign=middle;whiteSpace=wrap;rounded=0;" parent="1" vertex="1">
          <mxGeometry x="117" y="639" width="40" height="20" as="geometry" />
        </mxCell>
        <mxCell id="7X9WFguHcZWcBJbjp-pj-91" value="" style="ellipse;whiteSpace=wrap;html=1;" parent="1" vertex="1">
          <mxGeometry x="253" y="667" width="66" height="42" as="geometry" />
        </mxCell>
        <mxCell id="7X9WFguHcZWcBJbjp-pj-92" value="meter_id" style="text;html=1;strokeColor=none;fillColor=none;align=center;verticalAlign=middle;whiteSpace=wrap;rounded=0;" parent="1" vertex="1">
          <mxGeometry x="267" y="675" width="40" height="20" as="geometry" />
        </mxCell>
        <mxCell id="7X9WFguHcZWcBJbjp-pj-95" value="" style="endArrow=none;html=1;exitX=1;exitY=0.5;exitDx=0;exitDy=0;" parent="1" target="7X9WFguHcZWcBJbjp-pj-91" edge="1" source="7X9WFguHcZWcBJbjp-pj-85">
          <mxGeometry width="50" height="50" relative="1" as="geometry">
            <mxPoint x="181" y="714" as="sourcePoint" />
            <mxPoint x="226" y="669" as="targetPoint" />
          </mxGeometry>
        </mxCell>
        <mxCell id="7X9WFguHcZWcBJbjp-pj-97" value="" style="endArrow=none;html=1;exitX=0.5;exitY=0;exitDx=0;exitDy=0;entryX=0.5;entryY=1;entryDx=0;entryDy=0;" parent="1" source="7X9WFguHcZWcBJbjp-pj-85" target="7X9WFguHcZWcBJbjp-pj-89" edge="1">
          <mxGeometry width="50" height="50" relative="1" as="geometry">
            <mxPoint x="123" y="716.51" as="sourcePoint" />
            <mxPoint x="137" y="678" as="targetPoint" />
          </mxGeometry>
        </mxCell>
        <mxCell id="7X9WFguHcZWcBJbjp-pj-98" value="" style="endArrow=none;html=1;exitX=0.25;exitY=0;exitDx=0;exitDy=0;" parent="1" source="7X9WFguHcZWcBJbjp-pj-85" edge="1">
          <mxGeometry width="50" height="50" relative="1" as="geometry">
            <mxPoint x="44" y="714" as="sourcePoint" />
            <mxPoint x="83.35470583984443" y="667.4898930983657" as="targetPoint" />
          </mxGeometry>
        </mxCell>
        <mxCell id="7X9WFguHcZWcBJbjp-pj-99" value="" style="rounded=0;whiteSpace=wrap;html=1;" parent="1" vertex="1">
          <mxGeometry x="524.33" y="700" width="120" height="60" as="geometry" />
        </mxCell>
        <mxCell id="7X9WFguHcZWcBJbjp-pj-100" value="SMS" style="text;html=1;strokeColor=none;fillColor=none;align=center;verticalAlign=middle;whiteSpace=wrap;rounded=0;" parent="1" vertex="1">
          <mxGeometry x="557.33" y="715.5" width="54" height="29" as="geometry" />
        </mxCell>
        <mxCell id="7X9WFguHcZWcBJbjp-pj-101" value="" style="ellipse;whiteSpace=wrap;html=1;" parent="1" vertex="1">
          <mxGeometry x="453.33" y="614" width="66" height="42" as="geometry" />
        </mxCell>
        <mxCell id="7X9WFguHcZWcBJbjp-pj-102" value="id" style="text;html=1;strokeColor=none;fillColor=none;align=center;verticalAlign=middle;whiteSpace=wrap;rounded=0;" parent="1" vertex="1">
          <mxGeometry x="465.33" y="625" width="40" height="20" as="geometry" />
        </mxCell>
        <mxCell id="7X9WFguHcZWcBJbjp-pj-103" value="" style="ellipse;whiteSpace=wrap;html=1;" parent="1" vertex="1">
          <mxGeometry x="530.33" y="614" width="66" height="42" as="geometry" />
        </mxCell>
        <mxCell id="7X9WFguHcZWcBJbjp-pj-104" value="status" style="text;html=1;strokeColor=none;fillColor=none;align=center;verticalAlign=middle;whiteSpace=wrap;rounded=0;" parent="1" vertex="1">
          <mxGeometry x="542.33" y="625" width="40" height="20" as="geometry" />
        </mxCell>
        <mxCell id="7X9WFguHcZWcBJbjp-pj-105" value="" style="ellipse;whiteSpace=wrap;html=1;" parent="1" vertex="1">
          <mxGeometry x="618.33" y="614" width="66" height="42" as="geometry" />
        </mxCell>
        <mxCell id="7X9WFguHcZWcBJbjp-pj-106" value="to_number" style="text;html=1;strokeColor=none;fillColor=none;align=center;verticalAlign=middle;whiteSpace=wrap;rounded=0;" parent="1" vertex="1">
          <mxGeometry x="630.33" y="625" width="40" height="20" as="geometry" />
        </mxCell>
        <mxCell id="7X9WFguHcZWcBJbjp-pj-107" value="" style="ellipse;whiteSpace=wrap;html=1;" parent="1" vertex="1">
          <mxGeometry x="682.33" y="667" width="84" height="42" as="geometry" />
        </mxCell>
        <mxCell id="7X9WFguHcZWcBJbjp-pj-108" value="date" style="text;html=1;strokeColor=none;fillColor=none;align=center;verticalAlign=middle;whiteSpace=wrap;rounded=0;" parent="1" vertex="1">
          <mxGeometry x="704.33" y="678" width="40" height="20" as="geometry" />
        </mxCell>
        <mxCell id="7X9WFguHcZWcBJbjp-pj-109" value="" style="endArrow=none;html=1;" parent="1" target="7X9WFguHcZWcBJbjp-pj-105" edge="1">
          <mxGeometry width="50" height="50" relative="1" as="geometry">
            <mxPoint x="596.33" y="700" as="sourcePoint" />
            <mxPoint x="641.33" y="655" as="targetPoint" />
          </mxGeometry>
        </mxCell>
        <mxCell id="7X9WFguHcZWcBJbjp-pj-110" value="" style="endArrow=none;html=1;entryX=0;entryY=1;entryDx=0;entryDy=0;" parent="1" target="7X9WFguHcZWcBJbjp-pj-107" edge="1">
          <mxGeometry width="50" height="50" relative="1" as="geometry">
            <mxPoint x="644.9800000000001" y="746.51" as="sourcePoint" />
            <mxPoint x="684.33" y="700" as="targetPoint" />
          </mxGeometry>
        </mxCell>
        <mxCell id="7X9WFguHcZWcBJbjp-pj-111" value="" style="endArrow=none;html=1;exitX=0.5;exitY=0;exitDx=0;exitDy=0;entryX=0.5;entryY=1;entryDx=0;entryDy=0;" parent="1" source="7X9WFguHcZWcBJbjp-pj-99" target="7X9WFguHcZWcBJbjp-pj-103" edge="1">
          <mxGeometry width="50" height="50" relative="1" as="geometry">
            <mxPoint x="538.33" y="702.51" as="sourcePoint" />
            <mxPoint x="552.33" y="664" as="targetPoint" />
          </mxGeometry>
        </mxCell>
        <mxCell id="7X9WFguHcZWcBJbjp-pj-112" value="" style="endArrow=none;html=1;exitX=0.25;exitY=0;exitDx=0;exitDy=0;" parent="1" source="7X9WFguHcZWcBJbjp-pj-99" edge="1">
          <mxGeometry width="50" height="50" relative="1" as="geometry">
            <mxPoint x="459.33" y="700" as="sourcePoint" />
            <mxPoint x="498.6847058398444" y="653.4898930983657" as="targetPoint" />
          </mxGeometry>
        </mxCell>
        <mxCell id="7X9WFguHcZWcBJbjp-pj-113" value="" style="ellipse;whiteSpace=wrap;html=1;" parent="1" vertex="1">
          <mxGeometry x="684.6800000000001" y="760" width="84" height="42" as="geometry" />
        </mxCell>
        <mxCell id="7X9WFguHcZWcBJbjp-pj-114" value="msg" style="text;html=1;strokeColor=none;fillColor=none;align=center;verticalAlign=middle;whiteSpace=wrap;rounded=0;" parent="1" vertex="1">
          <mxGeometry x="706.6800000000001" y="771" width="40" height="20" as="geometry" />
        </mxCell>
        <mxCell id="7X9WFguHcZWcBJbjp-pj-115" value="" style="endArrow=none;html=1;entryX=0;entryY=1;entryDx=0;entryDy=0;exitX=1;exitY=1;exitDx=0;exitDy=0;" parent="1" source="7X9WFguHcZWcBJbjp-pj-99" target="7X9WFguHcZWcBJbjp-pj-113" edge="1">
          <mxGeometry width="50" height="50" relative="1" as="geometry">
            <mxPoint x="647.3300000000002" y="839.51" as="sourcePoint" />
            <mxPoint x="686.6800000000001" y="793" as="targetPoint" />
          </mxGeometry>
        </mxCell>
        <mxCell id="7X9WFguHcZWcBJbjp-pj-116" value="" style="rounded=0;whiteSpace=wrap;html=1;" parent="1" vertex="1">
          <mxGeometry x="143" y="906" width="120" height="60" as="geometry" />
        </mxCell>
        <mxCell id="7X9WFguHcZWcBJbjp-pj-117" value="Topup" style="text;html=1;strokeColor=none;fillColor=none;align=center;verticalAlign=middle;whiteSpace=wrap;rounded=0;" parent="1" vertex="1">
          <mxGeometry x="176" y="921.5" width="54" height="29" as="geometry" />
        </mxCell>
        <mxCell id="7X9WFguHcZWcBJbjp-pj-118" value="" style="ellipse;whiteSpace=wrap;html=1;" parent="1" vertex="1">
          <mxGeometry x="31" y="853" width="66" height="42" as="geometry" />
        </mxCell>
        <mxCell id="7X9WFguHcZWcBJbjp-pj-119" value="id" style="text;html=1;strokeColor=none;fillColor=none;align=center;verticalAlign=middle;whiteSpace=wrap;rounded=0;" parent="1" vertex="1">
          <mxGeometry x="44" y="864" width="40" height="20" as="geometry" />
        </mxCell>
        <mxCell id="7X9WFguHcZWcBJbjp-pj-122" value="" style="ellipse;whiteSpace=wrap;html=1;" parent="1" vertex="1">
          <mxGeometry x="237" y="820" width="66" height="42" as="geometry" />
        </mxCell>
        <mxCell id="7X9WFguHcZWcBJbjp-pj-123" value="amount" style="text;html=1;strokeColor=none;fillColor=none;align=center;verticalAlign=middle;whiteSpace=wrap;rounded=0;" parent="1" vertex="1">
          <mxGeometry x="249" y="831" width="40" height="20" as="geometry" />
        </mxCell>
        <mxCell id="7X9WFguHcZWcBJbjp-pj-124" value="" style="ellipse;whiteSpace=wrap;html=1;" parent="1" vertex="1">
          <mxGeometry x="301" y="873" width="110" height="42" as="geometry" />
        </mxCell>
        <mxCell id="7X9WFguHcZWcBJbjp-pj-125" value="card_serialnum" style="text;html=1;strokeColor=none;fillColor=none;align=center;verticalAlign=middle;whiteSpace=wrap;rounded=0;" parent="1" vertex="1">
          <mxGeometry x="336" y="884" width="40" height="20" as="geometry" />
        </mxCell>
        <mxCell id="7X9WFguHcZWcBJbjp-pj-126" value="" style="endArrow=none;html=1;" parent="1" target="7X9WFguHcZWcBJbjp-pj-122" edge="1">
          <mxGeometry width="50" height="50" relative="1" as="geometry">
            <mxPoint x="215" y="906" as="sourcePoint" />
            <mxPoint x="260" y="861" as="targetPoint" />
          </mxGeometry>
        </mxCell>
        <mxCell id="7X9WFguHcZWcBJbjp-pj-127" value="" style="endArrow=none;html=1;entryX=0;entryY=1;entryDx=0;entryDy=0;" parent="1" target="7X9WFguHcZWcBJbjp-pj-124" edge="1">
          <mxGeometry width="50" height="50" relative="1" as="geometry">
            <mxPoint x="263.6500000000001" y="952.51" as="sourcePoint" />
            <mxPoint x="303" y="906" as="targetPoint" />
          </mxGeometry>
        </mxCell>
        <mxCell id="7X9WFguHcZWcBJbjp-pj-128" value="" style="endArrow=none;html=1;exitX=0.35;exitY=0;exitDx=0;exitDy=0;exitPerimeter=0;" parent="1" source="7X9WFguHcZWcBJbjp-pj-116" edge="1">
          <mxGeometry width="50" height="50" relative="1" as="geometry">
            <mxPoint x="157" y="908.51" as="sourcePoint" />
            <mxPoint x="182" y="867" as="targetPoint" />
          </mxGeometry>
        </mxCell>
        <mxCell id="7X9WFguHcZWcBJbjp-pj-129" value="" style="endArrow=none;html=1;exitX=0;exitY=0.25;exitDx=0;exitDy=0;entryX=0.97;entryY=0.69;entryDx=0;entryDy=0;entryPerimeter=0;" parent="1" source="7X9WFguHcZWcBJbjp-pj-116" edge="1" target="7X9WFguHcZWcBJbjp-pj-118">
          <mxGeometry width="50" height="50" relative="1" as="geometry">
            <mxPoint x="78" y="906" as="sourcePoint" />
            <mxPoint x="117.35470583984443" y="859.4898930983657" as="targetPoint" />
          </mxGeometry>
        </mxCell>
        <mxCell id="7X9WFguHcZWcBJbjp-pj-130" value="" style="ellipse;whiteSpace=wrap;html=1;" parent="1" vertex="1">
          <mxGeometry x="315" y="928" width="84" height="42" as="geometry" />
        </mxCell>
        <mxCell id="7X9WFguHcZWcBJbjp-pj-131" value="otp" style="text;html=1;strokeColor=none;fillColor=none;align=center;verticalAlign=middle;whiteSpace=wrap;rounded=0;" parent="1" vertex="1">
          <mxGeometry x="337" y="939" width="40" height="20" as="geometry" />
        </mxCell>
        <mxCell id="7X9WFguHcZWcBJbjp-pj-132" value="" style="endArrow=none;html=1;entryX=0;entryY=1;entryDx=0;entryDy=0;exitX=1;exitY=1;exitDx=0;exitDy=0;" parent="1" source="7X9WFguHcZWcBJbjp-pj-116" target="7X9WFguHcZWcBJbjp-pj-130" edge="1">
          <mxGeometry width="50" height="50" relative="1" as="geometry">
            <mxPoint x="270.0000000000001" y="1030.01" as="sourcePoint" />
            <mxPoint x="309.35" y="983.5" as="targetPoint" />
          </mxGeometry>
        </mxCell>
        <mxCell id="7X9WFguHcZWcBJbjp-pj-133" value="" style="ellipse;whiteSpace=wrap;html=1;" parent="1" vertex="1">
          <mxGeometry x="249" y="1004" width="84" height="42" as="geometry" />
        </mxCell>
        <mxCell id="7X9WFguHcZWcBJbjp-pj-134" value="chargeDate" style="text;html=1;strokeColor=none;fillColor=none;align=center;verticalAlign=middle;whiteSpace=wrap;rounded=0;" parent="1" vertex="1">
          <mxGeometry x="271" y="1015" width="40" height="20" as="geometry" />
        </mxCell>
        <mxCell id="7X9WFguHcZWcBJbjp-pj-135" value="" style="endArrow=none;html=1;entryX=0.5;entryY=0;entryDx=0;entryDy=0;exitX=0.75;exitY=1;exitDx=0;exitDy=0;" parent="1" source="7X9WFguHcZWcBJbjp-pj-116" target="7X9WFguHcZWcBJbjp-pj-133" edge="1">
          <mxGeometry width="50" height="50" relative="1" as="geometry">
            <mxPoint x="138.00000000000009" y="1083.51" as="sourcePoint" />
            <mxPoint x="177.35" y="1037" as="targetPoint" />
          </mxGeometry>
        </mxCell>
        <mxCell id="7X9WFguHcZWcBJbjp-pj-136" value="" style="ellipse;whiteSpace=wrap;html=1;" parent="1" vertex="1">
          <mxGeometry x="149" y="1018" width="95" height="42" as="geometry" />
        </mxCell>
        <mxCell id="7X9WFguHcZWcBJbjp-pj-137" value="activationDate" style="text;html=1;strokeColor=none;fillColor=none;align=center;verticalAlign=middle;whiteSpace=wrap;rounded=0;" parent="1" vertex="1">
          <mxGeometry x="176" y="1029" width="40" height="20" as="geometry" />
        </mxCell>
        <mxCell id="7X9WFguHcZWcBJbjp-pj-138" value="" style="endArrow=none;html=1;exitX=0.25;exitY=1;exitDx=0;exitDy=0;" parent="1" source="7X9WFguHcZWcBJbjp-pj-116" edge="1">
          <mxGeometry width="50" height="50" relative="1" as="geometry">
            <mxPoint x="52.65000000000009" y="1061.01" as="sourcePoint" />
            <mxPoint x="191" y="1017" as="targetPoint" />
          </mxGeometry>
        </mxCell>
        <mxCell id="7X9WFguHcZWcBJbjp-pj-139" value="" style="ellipse;whiteSpace=wrap;html=1;" parent="1" vertex="1">
          <mxGeometry x="62" y="1004" width="84" height="42" as="geometry" />
        </mxCell>
        <mxCell id="7X9WFguHcZWcBJbjp-pj-140" value="status" style="text;html=1;strokeColor=none;fillColor=none;align=center;verticalAlign=middle;whiteSpace=wrap;rounded=0;" parent="1" vertex="1">
          <mxGeometry x="84" y="1015" width="40" height="20" as="geometry" />
        </mxCell>
        <mxCell id="7X9WFguHcZWcBJbjp-pj-141" value="" style="endArrow=none;html=1;exitX=0;exitY=1;exitDx=0;exitDy=0;" parent="1" source="7X9WFguHcZWcBJbjp-pj-116" edge="1">
          <mxGeometry width="50" height="50" relative="1" as="geometry">
            <mxPoint x="86" y="952" as="sourcePoint" />
            <mxPoint x="104" y="1003" as="targetPoint" />
          </mxGeometry>
        </mxCell>
        <mxCell id="7X9WFguHcZWcBJbjp-pj-148" value="" style="rounded=0;whiteSpace=wrap;html=1;" parent="1" vertex="1">
          <mxGeometry x="588" y="939" width="120" height="60" as="geometry" />
        </mxCell>
        <mxCell id="7X9WFguHcZWcBJbjp-pj-149" value="transfer" style="text;html=1;strokeColor=none;fillColor=none;align=center;verticalAlign=middle;whiteSpace=wrap;rounded=0;" parent="1" vertex="1">
          <mxGeometry x="621" y="954.5" width="54" height="29" as="geometry" />
        </mxCell>
        <mxCell id="7X9WFguHcZWcBJbjp-pj-150" value="" style="ellipse;whiteSpace=wrap;html=1;" parent="1" vertex="1">
          <mxGeometry x="572" y="849" width="66" height="42" as="geometry" />
        </mxCell>
        <mxCell id="7X9WFguHcZWcBJbjp-pj-151" value="id" style="text;html=1;strokeColor=none;fillColor=none;align=center;verticalAlign=middle;whiteSpace=wrap;rounded=0;" parent="1" vertex="1">
          <mxGeometry x="582.33" y="860" width="40" height="20" as="geometry" />
        </mxCell>
        <mxCell id="7X9WFguHcZWcBJbjp-pj-152" value="" style="ellipse;whiteSpace=wrap;html=1;" parent="1" vertex="1">
          <mxGeometry x="678" y="853" width="79" height="42" as="geometry" />
        </mxCell>
        <mxCell id="7X9WFguHcZWcBJbjp-pj-153" value="senderOTP" style="text;html=1;strokeColor=none;fillColor=none;align=center;verticalAlign=middle;whiteSpace=wrap;rounded=0;" parent="1" vertex="1">
          <mxGeometry x="697" y="860" width="40" height="20" as="geometry" />
        </mxCell>
        <mxCell id="7X9WFguHcZWcBJbjp-pj-156" value="" style="ellipse;whiteSpace=wrap;html=1;" parent="1" vertex="1">
          <mxGeometry x="746" y="906" width="84" height="42" as="geometry" />
        </mxCell>
        <mxCell id="7X9WFguHcZWcBJbjp-pj-157" value="amount" style="text;html=1;strokeColor=none;fillColor=none;align=center;verticalAlign=middle;whiteSpace=wrap;rounded=0;" parent="1" vertex="1">
          <mxGeometry x="768" y="917" width="40" height="20" as="geometry" />
        </mxCell>
        <mxCell id="7X9WFguHcZWcBJbjp-pj-158" value="" style="endArrow=none;html=1;entryX=0;entryY=0;entryDx=0;entryDy=0;" parent="1" target="7X9WFguHcZWcBJbjp-pj-148" edge="1">
          <mxGeometry width="50" height="50" relative="1" as="geometry">
            <mxPoint x="524" y="939" as="sourcePoint" />
            <mxPoint x="556.3547058398444" y="921.4998930983656" as="targetPoint" />
          </mxGeometry>
        </mxCell>
        <mxCell id="7X9WFguHcZWcBJbjp-pj-159" value="" style="endArrow=none;html=1;entryX=0;entryY=1;entryDx=0;entryDy=0;" parent="1" target="7X9WFguHcZWcBJbjp-pj-156" edge="1">
          <mxGeometry width="50" height="50" relative="1" as="geometry">
            <mxPoint x="708.6500000000001" y="985.51" as="sourcePoint" />
            <mxPoint x="748" y="939" as="targetPoint" />
          </mxGeometry>
        </mxCell>
        <mxCell id="7X9WFguHcZWcBJbjp-pj-160" value="" style="endArrow=none;html=1;exitX=0.5;exitY=0;exitDx=0;exitDy=0;entryX=0.5;entryY=1;entryDx=0;entryDy=0;" parent="1" source="7X9WFguHcZWcBJbjp-pj-148" target="7X9WFguHcZWcBJbjp-pj-152" edge="1">
          <mxGeometry width="50" height="50" relative="1" as="geometry">
            <mxPoint x="602" y="941.51" as="sourcePoint" />
            <mxPoint x="616" y="903" as="targetPoint" />
          </mxGeometry>
        </mxCell>
        <mxCell id="7X9WFguHcZWcBJbjp-pj-161" value="" style="endArrow=none;html=1;exitX=0.25;exitY=0;exitDx=0;exitDy=0;" parent="1" source="7X9WFguHcZWcBJbjp-pj-148" edge="1" target="7X9WFguHcZWcBJbjp-pj-150">
          <mxGeometry width="50" height="50" relative="1" as="geometry">
            <mxPoint x="523" y="939" as="sourcePoint" />
            <mxPoint x="562.3547058398444" y="892.4898930983657" as="targetPoint" />
          </mxGeometry>
        </mxCell>
        <mxCell id="7X9WFguHcZWcBJbjp-pj-163" value="" style="endArrow=none;html=1;" parent="1" edge="1">
          <mxGeometry width="50" height="50" relative="1" as="geometry">
            <mxPoint x="491" y="83" as="sourcePoint" />
            <mxPoint x="508" y="83" as="targetPoint" />
          </mxGeometry>
        </mxCell>
        <mxCell id="7X9WFguHcZWcBJbjp-pj-165" value="" style="endArrow=none;html=1;" parent="1" edge="1">
          <mxGeometry width="50" height="50" relative="1" as="geometry">
            <mxPoint x="498" y="361.5" as="sourcePoint" />
            <mxPoint x="534" y="361.5" as="targetPoint" />
          </mxGeometry>
        </mxCell>
        <mxCell id="7X9WFguHcZWcBJbjp-pj-166" value="" style="endArrow=none;html=1;" parent="1" edge="1">
          <mxGeometry width="50" height="50" relative="1" as="geometry">
            <mxPoint x="48" y="884" as="sourcePoint" />
            <mxPoint x="84" y="884" as="targetPoint" />
          </mxGeometry>
        </mxCell>
        <mxCell id="7X9WFguHcZWcBJbjp-pj-167" value="" style="endArrow=none;html=1;" parent="1" edge="1">
          <mxGeometry width="50" height="50" relative="1" as="geometry">
            <mxPoint x="581" y="879" as="sourcePoint" />
            <mxPoint x="617" y="879" as="targetPoint" />
          </mxGeometry>
        </mxCell>
        <mxCell id="SLVM6mjX0J04w46_K07c-1" value="" style="endArrow=none;html=1;" edge="1" parent="1">
          <mxGeometry width="50" height="50" relative="1" as="geometry">
            <mxPoint x="56" y="66" as="sourcePoint" />
            <mxPoint x="84" y="66" as="targetPoint" />
          </mxGeometry>
        </mxCell>
        <mxCell id="SLVM6mjX0J04w46_K07c-8" value="" style="endArrow=none;html=1;rounded=0;entryX=0.496;entryY=0;entryDx=0;entryDy=0;entryPerimeter=0;" edge="1" parent="1" target="7X9WFguHcZWcBJbjp-pj-33">
          <mxGeometry relative="1" as="geometry">
            <mxPoint x="176" y="339" as="sourcePoint" />
            <mxPoint x="202" y="410" as="targetPoint" />
          </mxGeometry>
        </mxCell>
        <mxCell id="SLVM6mjX0J04w46_K07c-9" value="City_id" style="shape=rhombus;perimeter=rhombusPerimeter;whiteSpace=wrap;html=1;align=center;" vertex="1" parent="1">
          <mxGeometry x="124" y="299.5" width="97" height="43" as="geometry" />
        </mxCell>
        <mxCell id="SLVM6mjX0J04w46_K07c-11" value="" style="endArrow=none;html=1;rounded=0;entryX=0.5;entryY=0;entryDx=0;entryDy=0;exitX=0.5;exitY=1;exitDx=0;exitDy=0;" edge="1" parent="1">
          <mxGeometry relative="1" as="geometry">
            <mxPoint x="158" y="182" as="sourcePoint" />
            <mxPoint x="170" y="302" as="targetPoint" />
          </mxGeometry>
        </mxCell>
        <mxCell id="SLVM6mjX0J04w46_K07c-12" value="M" style="text;html=1;align=center;verticalAlign=middle;resizable=0;points=[];autosize=1;" vertex="1" parent="1">
          <mxGeometry x="189" y="365" width="20" height="18" as="geometry" />
        </mxCell>
        <mxCell id="SLVM6mjX0J04w46_K07c-13" value="1" style="text;html=1;align=center;verticalAlign=middle;resizable=0;points=[];autosize=1;" vertex="1" parent="1">
          <mxGeometry x="180" y="250" width="17" height="18" as="geometry" />
        </mxCell>
        <mxCell id="SLVM6mjX0J04w46_K07c-15" value="" style="endArrow=none;html=1;rounded=0;entryX=0.5;entryY=0;entryDx=0;entryDy=0;exitX=0.5;exitY=1;exitDx=0;exitDy=0;" edge="1" parent="1" source="SLVM6mjX0J04w46_K07c-17">
          <mxGeometry relative="1" as="geometry">
            <mxPoint x="231" y="346" as="sourcePoint" />
            <mxPoint x="248" y="410" as="targetPoint" />
          </mxGeometry>
        </mxCell>
        <mxCell id="SLVM6mjX0J04w46_K07c-17" value="country_id" style="shape=rhombus;perimeter=rhombusPerimeter;whiteSpace=wrap;html=1;align=center;" vertex="1" parent="1">
          <mxGeometry x="202" y="317" width="91" height="40.5" as="geometry" />
        </mxCell>
        <mxCell id="SLVM6mjX0J04w46_K07c-19" value="" style="endArrow=none;html=1;rounded=0;entryX=0.385;entryY=0.148;entryDx=0;entryDy=0;exitX=0.5;exitY=1;exitDx=0;exitDy=0;entryPerimeter=0;" edge="1" parent="1" target="SLVM6mjX0J04w46_K07c-17">
          <mxGeometry relative="1" as="geometry">
            <mxPoint x="212" y="182" as="sourcePoint" />
            <mxPoint x="224" y="302" as="targetPoint" />
          </mxGeometry>
        </mxCell>
        <mxCell id="SLVM6mjX0J04w46_K07c-20" value="M" style="text;html=1;align=center;verticalAlign=middle;resizable=0;points=[];autosize=1;" vertex="1" parent="1">
          <mxGeometry x="257" y="365" width="20" height="18" as="geometry" />
        </mxCell>
        <mxCell id="SLVM6mjX0J04w46_K07c-21" value="1" style="text;html=1;align=center;verticalAlign=middle;resizable=0;points=[];autosize=1;" vertex="1" parent="1">
          <mxGeometry x="234" y="250" width="17" height="18" as="geometry" />
        </mxCell>
        <mxCell id="SLVM6mjX0J04w46_K07c-24" value="" style="ellipse;whiteSpace=wrap;html=1;" vertex="1" parent="1">
          <mxGeometry x="302" y="342.5" width="66" height="42" as="geometry" />
        </mxCell>
        <mxCell id="SLVM6mjX0J04w46_K07c-25" value="id" style="text;html=1;strokeColor=none;fillColor=none;align=center;verticalAlign=middle;whiteSpace=wrap;rounded=0;" vertex="1" parent="1">
          <mxGeometry x="314" y="353.5" width="40" height="20" as="geometry" />
        </mxCell>
        <mxCell id="SLVM6mjX0J04w46_K07c-26" value="" style="endArrow=none;html=1;exitX=1;exitY=0.25;exitDx=0;exitDy=0;" edge="1" parent="1" source="7X9WFguHcZWcBJbjp-pj-33">
          <mxGeometry width="50" height="50" relative="1" as="geometry">
            <mxPoint x="403" y="428.5" as="sourcePoint" />
            <mxPoint x="347.3547058398444" y="381.98989309836566" as="targetPoint" />
          </mxGeometry>
        </mxCell>
        <mxCell id="SLVM6mjX0J04w46_K07c-27" value="" style="endArrow=none;html=1;" edge="1" parent="1">
          <mxGeometry width="50" height="50" relative="1" as="geometry">
            <mxPoint x="318" y="370.5" as="sourcePoint" />
            <mxPoint x="345" y="370.5" as="targetPoint" />
          </mxGeometry>
        </mxCell>
        <mxCell id="SLVM6mjX0J04w46_K07c-30" value="" style="endArrow=none;html=1;rounded=0;entryX=0.433;entryY=0.017;entryDx=0;entryDy=0;entryPerimeter=0;exitX=0.5;exitY=1;exitDx=0;exitDy=0;" edge="1" parent="1" source="SLVM6mjX0J04w46_K07c-32">
          <mxGeometry relative="1" as="geometry">
            <mxPoint x="122" y="337.98" as="sourcePoint" />
            <mxPoint x="142.99099999999999" y="410" as="targetPoint" />
          </mxGeometry>
        </mxCell>
        <mxCell id="SLVM6mjX0J04w46_K07c-32" value="town_id" style="shape=rhombus;perimeter=rhombusPerimeter;whiteSpace=wrap;html=1;align=center;" vertex="1" parent="1">
          <mxGeometry x="60" y="320.98" width="97" height="43" as="geometry" />
        </mxCell>
        <mxCell id="SLVM6mjX0J04w46_K07c-34" value="" style="endArrow=none;html=1;rounded=0;entryX=0.392;entryY=0.047;entryDx=0;entryDy=0;exitX=0.5;exitY=1;exitDx=0;exitDy=0;entryPerimeter=0;" edge="1" parent="1" target="SLVM6mjX0J04w46_K07c-32">
          <mxGeometry relative="1" as="geometry">
            <mxPoint x="112" y="180.98" as="sourcePoint" />
            <mxPoint x="124" y="300.98" as="targetPoint" />
          </mxGeometry>
        </mxCell>
        <mxCell id="SLVM6mjX0J04w46_K07c-35" value="M" style="text;html=1;align=center;verticalAlign=middle;resizable=0;points=[];autosize=1;" vertex="1" parent="1">
          <mxGeometry x="136" y="363.98" width="20" height="18" as="geometry" />
        </mxCell>
        <mxCell id="SLVM6mjX0J04w46_K07c-36" value="1" style="text;html=1;align=center;verticalAlign=middle;resizable=0;points=[];autosize=1;" vertex="1" parent="1">
          <mxGeometry x="116" y="254" width="17" height="18" as="geometry" />
        </mxCell>
        <mxCell id="SLVM6mjX0J04w46_K07c-38" value="Area" style="whiteSpace=wrap;html=1;align=center;" vertex="1" parent="1">
          <mxGeometry x="92" y="122" width="140" height="62" as="geometry" />
        </mxCell>
        <mxCell id="SLVM6mjX0J04w46_K07c-39" value="" style="endArrow=none;html=1;rounded=0;" edge="1" parent="1">
          <mxGeometry relative="1" as="geometry">
            <mxPoint x="261" y="435" as="sourcePoint" />
            <mxPoint x="421" y="427" as="targetPoint" />
          </mxGeometry>
        </mxCell>
        <mxCell id="SLVM6mjX0J04w46_K07c-40" value="1" style="text;html=1;align=center;verticalAlign=middle;resizable=0;points=[];autosize=1;" vertex="1" parent="1">
          <mxGeometry x="347.5" y="406" width="17" height="18" as="geometry" />
        </mxCell>
        <mxCell id="SLVM6mjX0J04w46_K07c-43" value="" style="endArrow=none;html=1;rounded=0;" edge="1" parent="1">
          <mxGeometry relative="1" as="geometry">
            <mxPoint x="419" y="426" as="sourcePoint" />
            <mxPoint x="419" y="268" as="targetPoint" />
          </mxGeometry>
        </mxCell>
        <mxCell id="SLVM6mjX0J04w46_K07c-44" value="has one card" style="shape=rhombus;perimeter=rhombusPerimeter;whiteSpace=wrap;html=1;align=center;" vertex="1" parent="1">
          <mxGeometry x="364.5" y="232.25" width="110" height="53.5" as="geometry" />
        </mxCell>
        <mxCell id="SLVM6mjX0J04w46_K07c-45" value="" style="endArrow=none;html=1;rounded=0;" edge="1" parent="1">
          <mxGeometry relative="1" as="geometry">
            <mxPoint x="417" y="231" as="sourcePoint" />
            <mxPoint x="417" y="173" as="targetPoint" />
          </mxGeometry>
        </mxCell>
        <mxCell id="SLVM6mjX0J04w46_K07c-47" value="" style="endArrow=none;html=1;rounded=0;" edge="1" parent="1">
          <mxGeometry relative="1" as="geometry">
            <mxPoint x="416" y="172" as="sourcePoint" />
            <mxPoint x="538" y="172" as="targetPoint" />
          </mxGeometry>
        </mxCell>
        <mxCell id="SLVM6mjX0J04w46_K07c-48" value="1" style="text;html=1;align=center;verticalAlign=middle;resizable=0;points=[];autosize=1;" vertex="1" parent="1">
          <mxGeometry x="431" y="187" width="17" height="18" as="geometry" />
        </mxCell>
        <mxCell id="SLVM6mjX0J04w46_K07c-49" value="" style="endArrow=none;html=1;" edge="1" parent="1">
          <mxGeometry width="50" height="50" relative="1" as="geometry">
            <mxPoint x="52" y="659" as="sourcePoint" />
            <mxPoint x="88" y="659" as="targetPoint" />
          </mxGeometry>
        </mxCell>
        <mxCell id="SLVM6mjX0J04w46_K07c-50" value="" style="endArrow=none;html=1;" edge="1" parent="1">
          <mxGeometry width="50" height="50" relative="1" as="geometry">
            <mxPoint x="469.33" y="645" as="sourcePoint" />
            <mxPoint x="505.33" y="645" as="targetPoint" />
          </mxGeometry>
        </mxCell>
        <mxCell id="SLVM6mjX0J04w46_K07c-52" value="" style="endArrow=none;html=1;rounded=0;entryX=0.5;entryY=0;entryDx=0;entryDy=0;exitX=0.5;exitY=1;exitDx=0;exitDy=0;" edge="1" parent="1">
          <mxGeometry relative="1" as="geometry">
            <mxPoint x="224" y="661.5" as="sourcePoint" />
            <mxPoint x="224.5" y="714" as="targetPoint" />
          </mxGeometry>
        </mxCell>
        <mxCell id="SLVM6mjX0J04w46_K07c-53" value="1" style="text;html=1;align=center;verticalAlign=middle;resizable=0;points=[];autosize=1;" vertex="1" parent="1">
          <mxGeometry x="225.5" y="576" width="17" height="18" as="geometry" />
        </mxCell>
        <mxCell id="SLVM6mjX0J04w46_K07c-54" value="has many meters" style="shape=rhombus;perimeter=rhombusPerimeter;whiteSpace=wrap;html=1;align=center;" vertex="1" parent="1">
          <mxGeometry x="179" y="614" width="93" height="48" as="geometry" />
        </mxCell>
        <mxCell id="SLVM6mjX0J04w46_K07c-56" value="M" style="text;html=1;align=center;verticalAlign=middle;resizable=0;points=[];autosize=1;" vertex="1" parent="1">
          <mxGeometry x="228" y="670" width="20" height="18" as="geometry" />
        </mxCell>
        <mxCell id="SLVM6mjX0J04w46_K07c-57" value="" style="endArrow=none;html=1;rounded=0;exitX=0.5;exitY=1;exitDx=0;exitDy=0;entryX=0.5;entryY=0;entryDx=0;entryDy=0;" edge="1" parent="1" target="SLVM6mjX0J04w46_K07c-54">
          <mxGeometry relative="1" as="geometry">
            <mxPoint x="227" y="466.5" as="sourcePoint" />
            <mxPoint x="228" y="612" as="targetPoint" />
          </mxGeometry>
        </mxCell>
        <mxCell id="SLVM6mjX0J04w46_K07c-58" value="M" style="text;html=1;align=center;verticalAlign=middle;resizable=0;points=[];autosize=1;" vertex="1" parent="1">
          <mxGeometry x="193" y="877" width="20" height="18" as="geometry" />
        </mxCell>
        <mxCell id="SLVM6mjX0J04w46_K07c-60" value="many topups" style="shape=rhombus;perimeter=rhombusPerimeter;whiteSpace=wrap;html=1;align=center;" vertex="1" parent="1">
          <mxGeometry x="140" y="827" width="93" height="48" as="geometry" />
        </mxCell>
        <mxCell id="SLVM6mjX0J04w46_K07c-61" value="" style="endArrow=none;html=1;rounded=0;entryX=0.5;entryY=0;entryDx=0;entryDy=0;exitX=0.5;exitY=1;exitDx=0;exitDy=0;" edge="1" parent="1">
          <mxGeometry relative="1" as="geometry">
            <mxPoint x="184" y="774" as="sourcePoint" />
            <mxPoint x="184.5" y="826.5" as="targetPoint" />
          </mxGeometry>
        </mxCell>
        <mxCell id="SLVM6mjX0J04w46_K07c-62" value="1&lt;br&gt;" style="text;html=1;align=center;verticalAlign=middle;resizable=0;points=[];autosize=1;" vertex="1" parent="1">
          <mxGeometry x="184" y="801" width="17" height="18" as="geometry" />
        </mxCell>
        <mxCell id="SLVM6mjX0J04w46_K07c-64" value="" style="endArrow=none;html=1;rounded=0;" edge="1" parent="1">
          <mxGeometry relative="1" as="geometry">
            <mxPoint x="523" y="828" as="sourcePoint" />
            <mxPoint x="523" y="937" as="targetPoint" />
          </mxGeometry>
        </mxCell>
        <mxCell id="SLVM6mjX0J04w46_K07c-65" value="" style="endArrow=none;html=1;rounded=0;" edge="1" parent="1">
          <mxGeometry relative="1" as="geometry">
            <mxPoint x="440" y="829" as="sourcePoint" />
            <mxPoint x="522" y="829" as="targetPoint" />
          </mxGeometry>
        </mxCell>
        <mxCell id="SLVM6mjX0J04w46_K07c-66" value="many transfers" style="shape=rhombus;perimeter=rhombusPerimeter;whiteSpace=wrap;html=1;align=center;" vertex="1" parent="1">
          <mxGeometry x="381.5" y="796" width="97.5" height="52" as="geometry" />
        </mxCell>
        <mxCell id="SLVM6mjX0J04w46_K07c-67" value="" style="endArrow=none;html=1;rounded=0;" edge="1" parent="1">
          <mxGeometry relative="1" as="geometry">
            <mxPoint x="306" y="822" as="sourcePoint" />
            <mxPoint x="383" y="822" as="targetPoint" />
          </mxGeometry>
        </mxCell>
        <mxCell id="SLVM6mjX0J04w46_K07c-68" value="" style="endArrow=none;html=1;rounded=0;" edge="1" parent="1">
          <mxGeometry relative="1" as="geometry">
            <mxPoint x="308" y="754" as="sourcePoint" />
            <mxPoint x="308" y="824" as="targetPoint" />
          </mxGeometry>
        </mxCell>
        <mxCell id="SLVM6mjX0J04w46_K07c-69" value="" style="endArrow=none;html=1;rounded=0;" edge="1" parent="1">
          <mxGeometry relative="1" as="geometry">
            <mxPoint x="230" y="752" as="sourcePoint" />
            <mxPoint x="308" y="752" as="targetPoint" />
          </mxGeometry>
        </mxCell>
        <mxCell id="SLVM6mjX0J04w46_K07c-70" value="M" style="text;html=1;align=center;verticalAlign=middle;resizable=0;points=[];autosize=1;" vertex="1" parent="1">
          <mxGeometry x="526" y="873" width="20" height="18" as="geometry" />
        </mxCell>
        <mxCell id="SLVM6mjX0J04w46_K07c-71" value="1" style="text;html=1;align=center;verticalAlign=middle;resizable=0;points=[];autosize=1;" vertex="1" parent="1">
          <mxGeometry x="309" y="772" width="17" height="18" as="geometry" />
        </mxCell>
      </root>
    </mxGraphModel>
  </diagram>
</mxfile>
